<svg width="512" height="512" viewBox="0 0 512 512" xmlns="http://www.w3.org/2000/svg">
    <path fill="#FFB300" fill-rule="evenodd" clip-rule="evenodd" d="
        M256 40 C256 40 150 180 150 320 C150 350 155 380 165 400 L80 460 L120 460 L190 410 
        C210 418 230 422 256 422 C282 422 302 418 322 410 L392 460 L432 460 L347 400 
        C357 380 362 350 362 320 C362 180 256 40 256 40 Z
        
        M256 220 C228 220 206 242 206 270 C206 298 228 320 256 320 
        C284 320 306 298 306 270 C306 242 284 220 256 220 Z
        
        M245 435 C245 435 230 460 210 480 L302 480 C282 460 267 435 267 435 L245 435 Z
    "/>
</svg>